<svg width="24" height="24" viewBox="0 0 24 24" fill="none" xmlns="http://www.w3.org/2000/svg">
<path d="M12 2C7.4008 2 5.13432 2.24936 4.14001 2.41314C3.45105 2.52662 3 3.28084 3 4.10591L3 5.74678C3 6.42083 3.18774 7.09053 3.56897 7.60078C4.34767 8.64294 6.18199 10.9288 8.82008 13.1592C8.877 13.2074 8.91164 13.284 8.91732 13.3626C9.17232 16.8856 9.40616 19.2953 9.5308 20.4861C9.62264 21.3634 10.2072 22 10.8864 22C11.1443 22 11.397 21.9073 11.6157 21.7323L13.6263 20.1243C14.0502 19.7852 14.3903 19.2469 14.504 18.5609C14.6383 17.7499 14.8476 16.1874 15.073 13.3701C15.0794 13.2906 15.1145 13.2145 15.1707 13.167C17.8138 10.9341 19.6514 8.64412 20.431 7.60073C20.8122 7.09053 21 6.42083 21 5.74678V4.10591C21 3.28083 20.549 2.52662 19.86 2.41314C18.8657 2.24936 16.5992 2 12 2Z" fill="#1A1A1A"/>
</svg>
